# xmcd CD database file
#
# Track frame offsets:
#	182
#	10937
#	19170
#	27080
#	38457
#	57817
#	64945
#	75457
#	87367
#	96410
#	110207
#	116875
#	126547
#	132752
#	140970
#	148945
#	166097
#	169992
#	183492
#	189375
#	200132
#	208227
#
# Disc length: 2891 seconds
#
# Revision: 2
# Processed by: cddbd v1.5.1PL0 Copyright (c) Steve Scherf et al.
# Submitted via: CDex 1.51
#
DISCID=4e0b4916
DTITLE=Frans Bruggen, Blockflote - Anner Bylsma, Violoncello - Gustav Leonhardt, Cembalo - Georg Philipp Telemann - Sechs Sonaten fur Blockflote und Basso continuo
DYEAR=1963
DGENRE=Classical
TTITLE0=Sonata F-dur (aus Der getreue Musikmeister): Vivace
TTITLE1=Sonata F-dur (aus Der getreue Musikmeister): Largo
TTITLE2=Sonata F-dur (aus Der getreue Musikmeister): Allegro
TTITLE3=Sonata f-moll (aus Der getreue Musikmeister): Triste
TTITLE4=Sonata f-moll (aus Der getreue Musikmeister): Allegro
TTITLE5=Sonata f-moll (aus Der getreue Musikmeister): Andante
TTITLE6=Sonata f-moll (aus Der getreue Musikmeister): Vivace
TTITLE7=Sonata C-dur (aus Essercizii Musici): Allegro
TTITLE8=Sonata C-dur (aus Essercizii Musici): Largetto
TTITLE9=Sonata C-dur (aus Essercizii Musici): Vivace
TTITLE10=Sonata B-dur (aus Der getreue Musikmeister): Largo
TTITLE11=Sonata B-dur (aus Der getreue Musikmeister): Allegro
TTITLE12=Sonata B-dur (aus Der getreue Musikmeister): Largo
TTITLE13=Sonata B-dur (aus Der getreue Musikmeister): Vivace
TTITLE14=Sonata d-moll (aus Essercizii Musici): Affettuoso
TTITLE15=Sonata d-moll (aus Essercizii Musici): Presto
TTITLE16=Sonata d-moll (aus Essercizii Musici): Grave
TTITLE17=Sonata d-moll (aus Essercizii Musici): Allegro
TTITLE18=Sonata C-dur (aus Der getreue Musikmeister): Cantabile
TTITLE19=Sonata C-dur (aus Der getreue Musikmeister): Allegro
TTITLE20=Sonata C-dur (aus Der getreue Musikmeister): Crave
TTITLE21=Sonata C-dur (aus Der getreue Musikmeister): Vivace
EXTD=YEAR: 1963
EXTT0=
EXTT1=
EXTT2=
EXTT3=
EXTT4=
EXTT5=
EXTT6=
EXTT7=
EXTT8=
EXTT9=
EXTT10=
EXTT11=
EXTT12=
EXTT13=
EXTT14=
EXTT15=
EXTT16=
EXTT17=
EXTT18=
EXTT19=
EXTT20=
EXTT21=
PLAYORDER=
